<svg width="20" height="20" viewBox="0 0 20 20" fill="none" xmlns="http://www.w3.org/2000/svg">
<g clip-path="url(#clip0_114_274)">
<path fill-rule="evenodd" clip-rule="evenodd" d="M5.24392 1.91083C5.56935 1.58539 6.09699 1.58539 6.42243 1.91083L9.75576 5.24416C10.0812 5.5696 10.0812 6.09723 9.75576 6.42267C9.43032 6.74811 8.90269 6.74811 8.57725 6.42267L6.6665 4.51193V15.8334C6.6665 16.2937 6.29341 16.6667 5.83317 16.6667C5.37293 16.6667 4.99984 16.2937 4.99984 15.8334V4.51193L3.08909 6.42267C2.76366 6.74811 2.23602 6.74811 1.91058 6.42267C1.58514 6.09723 1.58514 5.5696 1.91058 5.24416L5.24392 1.91083ZM14.1665 3.33341C14.6267 3.33341 14.9998 3.70651 14.9998 4.16675L14.9998 15.4882L16.9106 13.5775C17.236 13.2521 17.7637 13.2521 18.0891 13.5775C18.4145 13.9029 18.4145 14.4306 18.0891 14.756L14.7558 18.0893C14.5995 18.2456 14.3875 18.3334 14.1665 18.3334C13.9455 18.3334 13.7335 18.2456 13.5772 18.0893L10.2439 14.756C9.91848 14.4306 9.91848 13.9029 10.2439 13.5775C10.5694 13.2521 11.097 13.2521 11.4224 13.5775L13.3332 15.4882L13.3332 4.16675C13.3332 3.70651 13.7063 3.33341 14.1665 3.33341Z" fill="#7126B5"/>
</g>
<defs>
<clipPath id="clip0_114_274">
<rect width="16.6667" height="16.6667" fill="white" transform="translate(1.6665 1.66675)"/>
</clipPath>
</defs>
</svg>
