<svg width="24" height="24" viewBox="0 0 24 24" fill="none" xmlns="http://www.w3.org/2000/svg">
<g clip-path="url(#clip0_139_5568)">
<path fill-rule="evenodd" clip-rule="evenodd" d="M9.2444 3.91107C9.56984 3.58563 10.0975 3.58563 10.4229 3.91107L13.7562 7.2444C14.0817 7.56984 14.0817 8.09748 13.7562 8.42291C13.4308 8.74835 12.9032 8.74835 12.5777 8.42291L10.667 6.51217V17.8337C10.667 18.2939 10.2939 18.667 9.83366 18.667C9.37342 18.667 9.00033 18.2939 9.00033 17.8337V6.51217L7.08958 8.42291C6.76414 8.74835 6.23651 8.74835 5.91107 8.42291C5.58563 8.09748 5.58563 7.56984 5.91107 7.2444L9.2444 3.91107ZM18.167 5.33366C18.6272 5.33366 19.0003 5.70675 19.0003 6.16699L19.0003 17.4885L20.9111 15.5777C21.2365 15.2523 21.7641 15.2523 22.0896 15.5777C22.415 15.9032 22.415 16.4308 22.0896 16.7562L18.7562 20.0896C18.6 20.2459 18.388 20.3337 18.167 20.3337C17.946 20.3337 17.734 20.2459 17.5777 20.0896L14.2444 16.7562C13.919 16.4308 13.919 15.9032 14.2444 15.5777C14.5698 15.2523 15.0975 15.2523 15.4229 15.5777L17.3337 17.4885L17.3337 6.16699C17.3337 5.70675 17.7068 5.33366 18.167 5.33366Z" fill="#7126B5"/>
</g>
<defs>
<clipPath id="clip0_139_5568">
<rect width="16.6667" height="16.6667" fill="white" transform="translate(5.66699 3.66699)"/>
</clipPath>
</defs>
</svg>
