<svg width="380" height="185" viewBox="0 0 380 185" fill="none" xmlns="http://www.w3.org/2000/svg">
<rect width="380" height="198" fill="white"/>
<g clip-path="url(#clip0_135_4212)">
<rect width="380" height="198" fill="white"/>
<rect x="16" y="16" width="348" height="42" rx="4" fill="white"/>
<path d="M52.55 21.172C53.586 21.172 54.4913 21.3773 55.266 21.788C56.0407 22.1987 56.638 22.7773 57.058 23.524C57.4873 24.2613 57.702 25.1153 57.702 26.086C57.702 27.0473 57.4873 27.9013 57.058 28.648C56.638 29.3947 56.036 29.9733 55.252 30.384C54.4773 30.7947 53.5767 31 52.55 31H48.868V21.172H52.55ZM52.396 28.928C53.3013 28.928 54.006 28.6807 54.51 28.186C55.014 27.6913 55.266 26.9913 55.266 26.086C55.266 25.1807 55.014 24.476 54.51 23.972C54.006 23.468 53.3013 23.216 52.396 23.216H51.262V28.928H52.396ZM66.4039 26.968C66.4039 27.192 66.3899 27.4253 66.3619 27.668H60.9439C60.9812 28.1533 61.1352 28.5267 61.4059 28.788C61.6859 29.04 62.0265 29.166 62.4279 29.166C63.0252 29.166 63.4405 28.914 63.6739 28.41H66.2219C66.0912 28.9233 65.8532 29.3853 65.5079 29.796C65.1719 30.2067 64.7472 30.5287 64.2339 30.762C63.7205 30.9953 63.1465 31.112 62.5119 31.112C61.7465 31.112 61.0652 30.9487 60.4679 30.622C59.8705 30.2953 59.4039 29.8287 59.0679 29.222C58.7319 28.6153 58.5639 27.906 58.5639 27.094C58.5639 26.282 58.7272 25.5727 59.0539 24.966C59.3899 24.3593 59.8565 23.8927 60.4539 23.566C61.0512 23.2393 61.7372 23.076 62.5119 23.076C63.2679 23.076 63.9399 23.2347 64.5279 23.552C65.1159 23.8693 65.5732 24.322 65.8999 24.91C66.2359 25.498 66.4039 26.184 66.4039 26.968ZM63.9539 26.338C63.9539 25.9273 63.8139 25.6007 63.5339 25.358C63.2539 25.1153 62.9039 24.994 62.4839 24.994C62.0825 24.994 61.7419 25.1107 61.4619 25.344C61.1912 25.5773 61.0232 25.9087 60.9579 26.338H63.9539ZM78.8808 23.188L76.7668 31H74.1208L72.8888 25.932L71.6148 31H68.9828L66.8548 23.188H69.2488L70.3548 28.774L71.6708 23.188H74.2048L75.5348 28.746L76.6268 23.188H78.8808ZM79.3178 27.08C79.3178 26.2773 79.4671 25.5727 79.7658 24.966C80.0738 24.3593 80.4891 23.8927 81.0118 23.566C81.5344 23.2393 82.1178 23.076 82.7618 23.076C83.3124 23.076 83.7931 23.188 84.2038 23.412C84.6238 23.636 84.9458 23.93 85.1698 24.294V23.188H87.5638V31H85.1698V29.894C84.9364 30.258 84.6098 30.552 84.1898 30.776C83.7791 31 83.2984 31.112 82.7478 31.112C82.1131 31.112 81.5344 30.9487 81.0118 30.622C80.4891 30.286 80.0738 29.8147 79.7658 29.208C79.4671 28.592 79.3178 27.8827 79.3178 27.08ZM85.1698 27.094C85.1698 26.4967 85.0018 26.0253 84.6658 25.68C84.3391 25.3347 83.9378 25.162 83.4618 25.162C82.9858 25.162 82.5798 25.3347 82.2438 25.68C81.9171 26.016 81.7538 26.4827 81.7538 27.08C81.7538 27.6773 81.9171 28.1533 82.2438 28.508C82.5798 28.8533 82.9858 29.026 83.4618 29.026C83.9378 29.026 84.3391 28.8533 84.6658 28.508C85.0018 28.1627 85.1698 27.6913 85.1698 27.094ZM92.4737 31.112C91.7924 31.112 91.1857 30.9953 90.6537 30.762C90.1217 30.5287 89.7017 30.2113 89.3937 29.81C89.0857 29.3993 88.9131 28.942 88.8757 28.438H91.2417C91.2697 28.7087 91.3957 28.928 91.6197 29.096C91.8437 29.264 92.1191 29.348 92.4457 29.348C92.7444 29.348 92.9731 29.292 93.1317 29.18C93.2997 29.0587 93.3837 28.9047 93.3837 28.718C93.3837 28.494 93.2671 28.3307 93.0337 28.228C92.8004 28.116 92.4224 27.9947 91.8997 27.864C91.3397 27.7333 90.8731 27.598 90.4997 27.458C90.1264 27.3087 89.8044 27.08 89.5337 26.772C89.2631 26.4547 89.1277 26.03 89.1277 25.498C89.1277 25.05 89.2491 24.644 89.4917 24.28C89.7437 23.9067 90.1077 23.6127 90.5837 23.398C91.0691 23.1833 91.6431 23.076 92.3057 23.076C93.2857 23.076 94.0557 23.3187 94.6157 23.804C95.1851 24.2893 95.5117 24.9333 95.5957 25.736H93.3837C93.3464 25.4653 93.2251 25.2507 93.0197 25.092C92.8237 24.9333 92.5624 24.854 92.2357 24.854C91.9557 24.854 91.7411 24.91 91.5917 25.022C91.4424 25.1247 91.3677 25.2693 91.3677 25.456C91.3677 25.68 91.4844 25.848 91.7177 25.96C91.9604 26.072 92.3337 26.184 92.8377 26.296C93.4164 26.4453 93.8877 26.5947 94.2517 26.744C94.6157 26.884 94.9331 27.1173 95.2037 27.444C95.4837 27.7613 95.6284 28.1907 95.6377 28.732C95.6377 29.1893 95.5071 29.6 95.2457 29.964C94.9937 30.3187 94.6251 30.5987 94.1397 30.804C93.6637 31.0093 93.1084 31.112 92.4737 31.112ZM96.6264 27.08C96.6264 26.2773 96.7757 25.5727 97.0744 24.966C97.3824 24.3593 97.7977 23.8927 98.3204 23.566C98.843 23.2393 99.4264 23.076 100.07 23.076C100.621 23.076 101.102 23.188 101.512 23.412C101.932 23.636 102.254 23.93 102.478 24.294V23.188H104.872V31H102.478V29.894C102.245 30.258 101.918 30.552 101.498 30.776C101.088 31 100.607 31.112 100.056 31.112C99.4217 31.112 98.843 30.9487 98.3204 30.622C97.7977 30.286 97.3824 29.8147 97.0744 29.208C96.7757 28.592 96.6264 27.8827 96.6264 27.08ZM102.478 27.094C102.478 26.4967 102.31 26.0253 101.974 25.68C101.648 25.3347 101.246 25.162 100.77 25.162C100.294 25.162 99.8884 25.3347 99.5524 25.68C99.2257 26.016 99.0624 26.4827 99.0624 27.08C99.0624 27.6773 99.2257 28.1533 99.5524 28.508C99.8884 28.8533 100.294 29.026 100.77 29.026C101.246 29.026 101.648 28.8533 101.974 28.508C102.31 28.1627 102.478 27.6913 102.478 27.094Z" fill="#151515"/>
<path d="M51.732 55.232C50.964 54.48 50.364 53.524 49.932 52.364C49.508 51.204 49.296 49.952 49.296 48.608C49.296 47.232 49.52 45.948 49.968 44.756C50.424 43.556 51.072 42.568 51.912 41.792H53.052V41.9C52.156 42.74 51.48 43.752 51.024 44.936C50.576 46.112 50.352 47.336 50.352 48.608C50.352 49.848 50.564 51.032 50.988 52.16C51.42 53.288 52.048 54.276 52.872 55.124V55.232H51.732ZM53.9052 45.32V44.324H56.1612V53H55.0572V45.32H53.9052ZM57.905 52.124C58.921 51.308 59.717 50.64 60.293 50.12C60.869 49.592 61.353 49.044 61.745 48.476C62.145 47.9 62.345 47.336 62.345 46.784C62.345 46.264 62.217 45.856 61.961 45.56C61.713 45.256 61.309 45.104 60.749 45.104C60.205 45.104 59.781 45.276 59.477 45.62C59.181 45.956 59.021 46.408 58.997 46.976H57.941C57.973 46.08 58.245 45.388 58.757 44.9C59.269 44.412 59.929 44.168 60.737 44.168C61.561 44.168 62.213 44.396 62.693 44.852C63.181 45.308 63.425 45.936 63.425 46.736C63.425 47.4 63.225 48.048 62.825 48.68C62.433 49.304 61.985 49.856 61.481 50.336C60.977 50.808 60.333 51.36 59.549 51.992H63.677V52.904H57.905V52.124ZM69.6505 47.324V51.2C69.6505 51.52 69.7185 51.748 69.8545 51.884C69.9905 52.012 70.2265 52.076 70.5625 52.076H71.3665V53H70.3825C69.7745 53 69.3185 52.86 69.0145 52.58C68.7105 52.3 68.5585 51.84 68.5585 51.2V47.324H67.7065V46.424H68.5585V44.768H69.6505V46.424H71.3665V47.324H69.6505ZM72.2816 49.688C72.2816 49.016 72.4176 48.428 72.6896 47.924C72.9616 47.412 73.3336 47.016 73.8056 46.736C74.2856 46.456 74.8176 46.316 75.4016 46.316C75.9776 46.316 76.4776 46.44 76.9016 46.688C77.3256 46.936 77.6416 47.248 77.8496 47.624V46.424H78.9536V53H77.8496V51.776C77.6336 52.16 77.3096 52.48 76.8776 52.736C76.4536 52.984 75.9576 53.108 75.3896 53.108C74.8056 53.108 74.2776 52.964 73.8056 52.676C73.3336 52.388 72.9616 51.984 72.6896 51.464C72.4176 50.944 72.2816 50.352 72.2816 49.688ZM77.8496 49.7C77.8496 49.204 77.7496 48.772 77.5496 48.404C77.3496 48.036 77.0776 47.756 76.7336 47.564C76.3976 47.364 76.0256 47.264 75.6176 47.264C75.2096 47.264 74.8376 47.36 74.5016 47.552C74.1656 47.744 73.8976 48.024 73.6976 48.392C73.4976 48.76 73.3976 49.192 73.3976 49.688C73.3976 50.192 73.4976 50.632 73.6976 51.008C73.8976 51.376 74.1656 51.66 74.5016 51.86C74.8376 52.052 75.2096 52.148 75.6176 52.148C76.0256 52.148 76.3976 52.052 76.7336 51.86C77.0776 51.66 77.3496 51.376 77.5496 51.008C77.7496 50.632 77.8496 50.196 77.8496 49.7ZM84.063 46.304C84.559 46.304 85.007 46.412 85.407 46.628C85.807 46.836 86.119 47.152 86.343 47.576C86.575 48 86.691 48.516 86.691 49.124V53H85.611V49.28C85.611 48.624 85.447 48.124 85.119 47.78C84.791 47.428 84.343 47.252 83.775 47.252C83.199 47.252 82.739 47.432 82.395 47.792C82.059 48.152 81.891 48.676 81.891 49.364V53H80.799V44.12H81.891V47.36C82.107 47.024 82.403 46.764 82.779 46.58C83.163 46.396 83.591 46.304 84.063 46.304ZM94.3068 46.424V53H93.2148V52.028C93.0068 52.364 92.7148 52.628 92.3388 52.82C91.9708 53.004 91.5628 53.096 91.1148 53.096C90.6028 53.096 90.1428 52.992 89.7348 52.784C89.3268 52.568 89.0028 52.248 88.7628 51.824C88.5308 51.4 88.4148 50.884 88.4148 50.276V46.424H89.4948V50.132C89.4948 50.78 89.6588 51.28 89.9868 51.632C90.3148 51.976 90.7628 52.148 91.3308 52.148C91.9148 52.148 92.3748 51.968 92.7108 51.608C93.0468 51.248 93.2148 50.724 93.2148 50.036V46.424H94.3068ZM99.3546 46.304C100.155 46.304 100.803 46.548 101.299 47.036C101.795 47.516 102.043 48.212 102.043 49.124V53H100.963V49.28C100.963 48.624 100.799 48.124 100.471 47.78C100.143 47.428 99.6946 47.252 99.1266 47.252C98.5506 47.252 98.0906 47.432 97.7466 47.792C97.4106 48.152 97.2426 48.676 97.2426 49.364V53H96.1506V46.424H97.2426V47.36C97.4586 47.024 97.7506 46.764 98.1186 46.58C98.4946 46.396 98.9066 46.304 99.3546 46.304ZM110.698 53L108.118 50.096V53H107.026V44.12H108.118V49.34L110.65 46.424H112.174L109.078 49.7L112.186 53H110.698ZM119.201 49.46C119.201 49.668 119.189 49.888 119.165 50.12H113.909C113.949 50.768 114.169 51.276 114.569 51.644C114.977 52.004 115.469 52.184 116.045 52.184C116.517 52.184 116.909 52.076 117.221 51.86C117.541 51.636 117.765 51.34 117.893 50.972H119.069C118.893 51.604 118.541 52.12 118.013 52.52C117.485 52.912 116.829 53.108 116.045 53.108C115.421 53.108 114.861 52.968 114.365 52.688C113.877 52.408 113.493 52.012 113.213 51.5C112.933 50.98 112.793 50.38 112.793 49.7C112.793 49.02 112.929 48.424 113.201 47.912C113.473 47.4 113.853 47.008 114.341 46.736C114.837 46.456 115.405 46.316 116.045 46.316C116.669 46.316 117.221 46.452 117.701 46.724C118.181 46.996 118.549 47.372 118.805 47.852C119.069 48.324 119.201 48.86 119.201 49.46ZM118.073 49.232C118.073 48.816 117.981 48.46 117.797 48.164C117.613 47.86 117.361 47.632 117.041 47.48C116.729 47.32 116.381 47.24 115.997 47.24C115.445 47.24 114.973 47.416 114.581 47.768C114.197 48.12 113.977 48.608 113.921 49.232H118.073ZM120.235 49.688C120.235 49.016 120.371 48.428 120.643 47.924C120.915 47.412 121.287 47.016 121.759 46.736C122.239 46.456 122.771 46.316 123.355 46.316C123.931 46.316 124.431 46.44 124.855 46.688C125.279 46.936 125.595 47.248 125.803 47.624V46.424H126.907V53H125.803V51.776C125.587 52.16 125.263 52.48 124.831 52.736C124.407 52.984 123.911 53.108 123.343 53.108C122.759 53.108 122.231 52.964 121.759 52.676C121.287 52.388 120.915 51.984 120.643 51.464C120.371 50.944 120.235 50.352 120.235 49.688ZM125.803 49.7C125.803 49.204 125.703 48.772 125.503 48.404C125.303 48.036 125.031 47.756 124.687 47.564C124.351 47.364 123.979 47.264 123.571 47.264C123.163 47.264 122.791 47.36 122.455 47.552C122.119 47.744 121.851 48.024 121.651 48.392C121.451 48.76 121.351 49.192 121.351 49.688C121.351 50.192 121.451 50.632 121.651 51.008C121.851 51.376 122.119 51.66 122.455 51.86C122.791 52.052 123.163 52.148 123.571 52.148C123.979 52.148 124.351 52.052 124.687 51.86C125.031 51.66 125.303 51.376 125.503 51.008C125.703 50.632 125.803 50.196 125.803 49.7ZM130.084 47.324V51.2C130.084 51.52 130.152 51.748 130.288 51.884C130.424 52.012 130.66 52.076 130.996 52.076H131.8V53H130.816C130.208 53 129.752 52.86 129.448 52.58C129.144 52.3 128.992 51.84 128.992 51.2V47.324H128.14V46.424H128.992V44.768H130.084V46.424H131.8V47.324H130.084ZM132.715 49.688C132.715 49.016 132.851 48.428 133.123 47.924C133.395 47.412 133.767 47.016 134.239 46.736C134.719 46.456 135.251 46.316 135.835 46.316C136.411 46.316 136.911 46.44 137.335 46.688C137.759 46.936 138.075 47.248 138.283 47.624V46.424H139.387V53H138.283V51.776C138.067 52.16 137.743 52.48 137.311 52.736C136.887 52.984 136.391 53.108 135.823 53.108C135.239 53.108 134.711 52.964 134.239 52.676C133.767 52.388 133.395 51.984 133.123 51.464C132.851 50.944 132.715 50.352 132.715 49.688ZM138.283 49.7C138.283 49.204 138.183 48.772 137.983 48.404C137.783 48.036 137.511 47.756 137.167 47.564C136.831 47.364 136.459 47.264 136.051 47.264C135.643 47.264 135.271 47.36 134.935 47.552C134.599 47.744 134.331 48.024 134.131 48.392C133.931 48.76 133.831 49.192 133.831 49.688C133.831 50.192 133.931 50.632 134.131 51.008C134.331 51.376 134.599 51.66 134.935 51.86C135.271 52.052 135.643 52.148 136.051 52.148C136.459 52.148 136.831 52.052 137.167 51.86C137.511 51.66 137.783 51.376 137.983 51.008C138.183 50.632 138.283 50.196 138.283 49.7ZM143.561 53.108C143.057 53.108 142.605 53.024 142.205 52.856C141.805 52.68 141.489 52.44 141.257 52.136C141.025 51.824 140.897 51.468 140.873 51.068H142.001C142.033 51.396 142.185 51.664 142.457 51.872C142.737 52.08 143.101 52.184 143.549 52.184C143.965 52.184 144.293 52.092 144.533 51.908C144.773 51.724 144.893 51.492 144.893 51.212C144.893 50.924 144.765 50.712 144.509 50.576C144.253 50.432 143.857 50.292 143.321 50.156C142.833 50.028 142.433 49.9 142.121 49.772C141.817 49.636 141.553 49.44 141.329 49.184C141.113 48.92 141.005 48.576 141.005 48.152C141.005 47.816 141.105 47.508 141.305 47.228C141.505 46.948 141.789 46.728 142.157 46.568C142.525 46.4 142.945 46.316 143.417 46.316C144.145 46.316 144.733 46.5 145.181 46.868C145.629 47.236 145.869 47.74 145.901 48.38H144.809C144.785 48.036 144.645 47.76 144.389 47.552C144.141 47.344 143.805 47.24 143.381 47.24C142.989 47.24 142.677 47.324 142.445 47.492C142.213 47.66 142.097 47.88 142.097 48.152C142.097 48.368 142.165 48.548 142.301 48.692C142.445 48.828 142.621 48.94 142.829 49.028C143.045 49.108 143.341 49.2 143.717 49.304C144.189 49.432 144.573 49.56 144.869 49.688C145.165 49.808 145.417 49.992 145.625 50.24C145.841 50.488 145.953 50.812 145.961 51.212C145.961 51.572 145.861 51.896 145.661 52.184C145.461 52.472 145.177 52.7 144.809 52.868C144.449 53.028 144.033 53.108 143.561 53.108ZM147.154 55.232V55.124C147.978 54.276 148.602 53.288 149.026 52.16C149.458 51.032 149.674 49.848 149.674 48.608C149.674 47.336 149.446 46.112 148.99 44.936C148.542 43.752 147.87 42.74 146.974 41.9V41.792H148.114C148.954 42.568 149.598 43.556 150.046 44.756C150.502 45.948 150.73 47.232 150.73 48.608C150.73 49.952 150.514 51.204 150.082 52.364C149.658 53.524 149.062 54.48 148.294 55.232H147.154Z" fill="#8A8A8A"/>
<path d="M25 21C25 19.3431 26.3431 18 28 18C29.6569 18 31 19.3431 31 21C31 22.6569 29.6569 24 28 24C26.3431 24 25 22.6569 25 21Z" fill="#3C3C3C"/>
<path d="M23 28C23 26.3431 24.3431 25 26 25H30C31.6569 25 33 26.3431 33 28V31.4338C33 31.7851 32.8157 32.1106 32.5145 32.2913L30.5 33.5V37C30.5 37.5523 30.0523 38 29.5 38H26.5C25.9477 38 25.5 37.5523 25.5 37V33.5L23.4855 32.2913C23.1843 32.1106 23 31.7851 23 31.4338V28Z" fill="#3C3C3C"/>
<rect x="216.5" y="17.5" width="39" height="39" rx="3.5" stroke="#7126B5"/>
<path fill-rule="evenodd" clip-rule="evenodd" d="M243 37C243 37.5523 242.552 38 242 38L230 38C229.448 38 229 37.5523 229 37C229 36.4477 229.448 36 230 36L242 36C242.552 36 243 36.4477 243 37Z" fill="#D0D0D0"/>
<rect x="260.5" y="17.5" width="59" height="39" rx="3.5" fill="white"/>
<rect x="260.5" y="17.5" width="59" height="39" rx="3.5" stroke="#D0D0D0"/>
<path d="M287.682 39.83C288.578 39.0553 289.283 38.4207 289.796 37.926C290.319 37.422 290.753 36.8993 291.098 36.358C291.443 35.8167 291.616 35.2753 291.616 34.734C291.616 34.174 291.481 33.7353 291.21 33.418C290.949 33.1007 290.533 32.942 289.964 32.942C289.413 32.942 288.984 33.1193 288.676 33.474C288.377 33.8193 288.219 34.286 288.2 34.874H286.66C286.688 33.81 287.005 32.998 287.612 32.438C288.228 31.8687 289.007 31.584 289.95 31.584C290.967 31.584 291.761 31.864 292.33 32.424C292.909 32.984 293.198 33.7307 293.198 34.664C293.198 35.336 293.025 35.9847 292.68 36.61C292.344 37.226 291.938 37.7813 291.462 38.276C290.995 38.7613 290.398 39.326 289.67 39.97L289.04 40.53H293.478V41.86H286.674V40.698L287.682 39.83Z" fill="#151515"/>
<rect x="324.5" y="17.5" width="39" height="39" rx="3.5" stroke="#7126B5"/>
<path d="M345 31C345 30.4477 344.552 30 344 30C343.448 30 343 30.4477 343 31V36H338C337.448 36 337 36.4477 337 37C337 37.5523 337.448 38 338 38H343V43C343 43.5523 343.448 44 344 44C344.552 44 345 43.5523 345 43V38H350C350.552 38 351 37.5523 351 37C351 36.4477 350.552 36 350 36H345V31Z" fill="#7126B5"/>
<g opacity="0.5">
<line x1="16" y1="65.5" x2="364" y2="65.5" stroke="#D0D0D0"/>
</g>
<rect x="16" y="74" width="348" height="42" rx="4" fill="white"/>
<path d="M50.986 87.264H47.318L46.73 89H44.224L47.78 79.172H50.552L54.108 89H51.574L50.986 87.264ZM50.37 85.416L49.152 81.818L47.948 85.416H50.37ZM59.9503 81.104C60.8649 81.104 61.5929 81.4027 62.1343 82C62.6849 82.588 62.9603 83.4 62.9603 84.436V89H60.5803V84.758C60.5803 84.2353 60.4449 83.8293 60.1743 83.54C59.9036 83.2507 59.5396 83.106 59.0823 83.106C58.6249 83.106 58.2609 83.2507 57.9903 83.54C57.7196 83.8293 57.5843 84.2353 57.5843 84.758V89H55.1903V81.188H57.5843V82.224C57.8269 81.8787 58.1536 81.608 58.5643 81.412C58.9749 81.2067 59.4369 81.104 59.9503 81.104ZM64.1479 85.08C64.1479 84.2773 64.2972 83.5727 64.5959 82.966C64.9039 82.3593 65.3192 81.8927 65.8419 81.566C66.3645 81.2393 66.9479 81.076 67.5919 81.076C68.1425 81.076 68.6232 81.188 69.0339 81.412C69.4539 81.636 69.7759 81.93 69.9999 82.294V81.188H72.3939V89H69.9999V87.894C69.7665 88.258 69.4399 88.552 69.0199 88.776C68.6092 89 68.1285 89.112 67.5779 89.112C66.9432 89.112 66.3645 88.9487 65.8419 88.622C65.3192 88.286 64.9039 87.8147 64.5959 87.208C64.2972 86.592 64.1479 85.8827 64.1479 85.08ZM69.9999 85.094C69.9999 84.4967 69.8319 84.0253 69.4959 83.68C69.1692 83.3347 68.7679 83.162 68.2919 83.162C67.8159 83.162 67.4099 83.3347 67.0739 83.68C66.7472 84.016 66.5839 84.4827 66.5839 85.08C66.5839 85.6773 66.7472 86.1533 67.0739 86.508C67.4099 86.8533 67.8159 87.026 68.2919 87.026C68.7679 87.026 69.1692 86.8533 69.4959 86.508C69.8319 86.1627 69.9999 85.6913 69.9999 85.094ZM78.8998 89L76.5198 85.724V89H74.1258V78.64H76.5198V84.366L78.8858 81.188H81.8398L78.5918 85.108L81.8678 89H78.8998Z" fill="#151515"/>
<path d="M50.9312 113.232C50.1632 112.48 49.5632 111.524 49.1312 110.364C48.7072 109.204 48.4952 107.952 48.4952 106.608C48.4952 105.232 48.7192 103.948 49.1672 102.756C49.6232 101.556 50.2712 100.568 51.1112 99.792H52.2512V99.9C51.3552 100.74 50.6792 101.752 50.2232 102.936C49.7752 104.112 49.5512 105.336 49.5512 106.608C49.5512 107.848 49.7632 109.032 50.1872 110.16C50.6192 111.288 51.2472 112.276 52.0712 113.124V113.232H50.9312ZM53.2604 110.124C54.2764 109.308 55.0724 108.64 55.6484 108.12C56.2244 107.592 56.7084 107.044 57.1004 106.476C57.5004 105.9 57.7004 105.336 57.7004 104.784C57.7004 104.264 57.5724 103.856 57.3164 103.56C57.0684 103.256 56.6644 103.104 56.1044 103.104C55.5604 103.104 55.1364 103.276 54.8324 103.62C54.5364 103.956 54.3764 104.408 54.3524 104.976H53.2964C53.3284 104.08 53.6004 103.388 54.1124 102.9C54.6244 102.412 55.2844 102.168 56.0924 102.168C56.9164 102.168 57.5684 102.396 58.0484 102.852C58.5364 103.308 58.7804 103.936 58.7804 104.736C58.7804 105.4 58.5804 106.048 58.1804 106.68C57.7884 107.304 57.3404 107.856 56.8364 108.336C56.3324 108.808 55.6884 109.36 54.9044 109.992H59.0324V110.904H53.2604V110.124ZM68.234 106.14V107.064H63.446V106.14H68.234ZM73.0146 103.32V102.324H75.2706V111H74.1666V103.32H73.0146ZM76.8583 103.32V102.324H79.1143V111H78.0103V103.32H76.8583ZM85.7013 105.324V109.2C85.7013 109.52 85.7693 109.748 85.9053 109.884C86.0413 110.012 86.2773 110.076 86.6133 110.076H87.4173V111H86.4333C85.8253 111 85.3693 110.86 85.0653 110.58C84.7613 110.3 84.6093 109.84 84.6093 109.2V105.324H83.7573V104.424H84.6093V102.768H85.7013V104.424H87.4173V105.324H85.7013ZM88.3324 107.688C88.3324 107.016 88.4684 106.428 88.7404 105.924C89.0124 105.412 89.3844 105.016 89.8564 104.736C90.3364 104.456 90.8684 104.316 91.4524 104.316C92.0284 104.316 92.5284 104.44 92.9524 104.688C93.3764 104.936 93.6924 105.248 93.9004 105.624V104.424H95.0044V111H93.9004V109.776C93.6844 110.16 93.3604 110.48 92.9284 110.736C92.5044 110.984 92.0084 111.108 91.4404 111.108C90.8564 111.108 90.3284 110.964 89.8564 110.676C89.3844 110.388 89.0124 109.984 88.7404 109.464C88.4684 108.944 88.3324 108.352 88.3324 107.688ZM93.9004 107.7C93.9004 107.204 93.8004 106.772 93.6004 106.404C93.4004 106.036 93.1284 105.756 92.7844 105.564C92.4484 105.364 92.0764 105.264 91.6684 105.264C91.2604 105.264 90.8884 105.36 90.5524 105.552C90.2164 105.744 89.9484 106.024 89.7484 106.392C89.5484 106.76 89.4484 107.192 89.4484 107.688C89.4484 108.192 89.5484 108.632 89.7484 109.008C89.9484 109.376 90.2164 109.66 90.5524 109.86C90.8884 110.052 91.2604 110.148 91.6684 110.148C92.0764 110.148 92.4484 110.052 92.7844 109.86C93.1284 109.66 93.4004 109.376 93.6004 109.008C93.8004 108.632 93.9004 108.196 93.9004 107.7ZM100.114 104.304C100.61 104.304 101.058 104.412 101.458 104.628C101.858 104.836 102.17 105.152 102.394 105.576C102.626 106 102.742 106.516 102.742 107.124V111H101.662V107.28C101.662 106.624 101.498 106.124 101.17 105.78C100.842 105.428 100.394 105.252 99.8258 105.252C99.2498 105.252 98.7898 105.432 98.4458 105.792C98.1098 106.152 97.9418 106.676 97.9418 107.364V111H96.8498V102.12H97.9418V105.36C98.1578 105.024 98.4538 104.764 98.8298 104.58C99.2138 104.396 99.6418 104.304 100.114 104.304ZM110.358 104.424V111H109.266V110.028C109.058 110.364 108.766 110.628 108.39 110.82C108.022 111.004 107.614 111.096 107.166 111.096C106.654 111.096 106.194 110.992 105.786 110.784C105.378 110.568 105.054 110.248 104.814 109.824C104.582 109.4 104.466 108.884 104.466 108.276V104.424H105.546V108.132C105.546 108.78 105.71 109.28 106.038 109.632C106.366 109.976 106.814 110.148 107.382 110.148C107.966 110.148 108.426 109.968 108.762 109.608C109.098 109.248 109.266 108.724 109.266 108.036V104.424H110.358ZM115.405 104.304C116.205 104.304 116.853 104.548 117.349 105.036C117.845 105.516 118.093 106.212 118.093 107.124V111H117.013V107.28C117.013 106.624 116.849 106.124 116.521 105.78C116.193 105.428 115.745 105.252 115.177 105.252C114.601 105.252 114.141 105.432 113.797 105.792C113.461 106.152 113.293 106.676 113.293 107.364V111H112.201V104.424H113.293V105.36C113.509 105.024 113.801 104.764 114.169 104.58C114.545 104.396 114.957 104.304 115.405 104.304ZM119.529 113.232V113.124C120.353 112.276 120.977 111.288 121.401 110.16C121.833 109.032 122.049 107.848 122.049 106.608C122.049 105.336 121.821 104.112 121.365 102.936C120.917 101.752 120.245 100.74 119.349 99.9V99.792H120.489C121.329 100.568 121.973 101.556 122.421 102.756C122.877 103.948 123.105 105.232 123.105 106.608C123.105 107.952 122.889 109.204 122.457 110.364C122.033 111.524 121.437 112.48 120.669 113.232H119.529Z" fill="#8A8A8A"/>
<path d="M23.0001 77C23.0001 75.3431 24.3432 74 26.0001 74C27.6569 74 29.0001 75.3431 29.0001 77C29.0001 78.6569 27.6569 80 26.0001 80C24.3432 80 23.0001 78.6569 23.0001 77Z" fill="#3C3C3C"/>
<path d="M24.6623 81H27.3378C28.6291 81 29.7755 81.8263 30.1838 83.0513L32.0613 88.6838C32.2772 89.3313 31.7952 90 31.1126 90H29.0001L28.1894 93.2425C28.0781 93.6877 27.6782 94 27.2193 94H24.7808C24.322 94 23.922 93.6877 23.8107 93.2425L23.0001 90H20.8875C20.2049 90 19.723 89.3313 19.9388 88.6838L21.8163 83.0513C22.2246 81.8263 23.371 81 24.6623 81Z" fill="#3C3C3C"/>
<rect x="216.5" y="75.5" width="39" height="39" rx="3.5" stroke="#7126B5"/>
<path fill-rule="evenodd" clip-rule="evenodd" d="M243 95C243 95.5523 242.552 96 242 96L230 96C229.448 96 229 95.5523 229 95C229 94.4477 229.448 94 230 94L242 94C242.552 94 243 94.4477 243 95Z" fill="#D0D0D0"/>
<rect x="260.5" y="75.5" width="59" height="39" rx="3.5" fill="white"/>
<rect x="260.5" y="75.5" width="59" height="39" rx="3.5" stroke="#D0D0D0"/>
<path d="M286.356 94.764C286.356 93.1493 286.626 91.8893 287.168 90.984C287.718 90.0693 288.661 89.612 289.996 89.612C291.33 89.612 292.268 90.0693 292.81 90.984C293.36 91.8893 293.636 93.1493 293.636 94.764C293.636 96.3973 293.36 97.676 292.81 98.6C292.268 99.5147 291.33 99.972 289.996 99.972C288.661 99.972 287.718 99.5147 287.168 98.6C286.626 97.676 286.356 96.3973 286.356 94.764ZM292.068 94.764C292.068 94.008 292.016 93.3687 291.914 92.846C291.82 92.3233 291.624 91.8987 291.326 91.572C291.027 91.236 290.584 91.068 289.996 91.068C289.408 91.068 288.964 91.236 288.666 91.572C288.367 91.8987 288.166 92.3233 288.064 92.846C287.97 93.3687 287.924 94.008 287.924 94.764C287.924 95.548 287.97 96.206 288.064 96.738C288.157 97.27 288.353 97.6993 288.652 98.026C288.96 98.3527 289.408 98.516 289.996 98.516C290.584 98.516 291.027 98.3527 291.326 98.026C291.634 97.6993 291.834 97.27 291.928 96.738C292.021 96.206 292.068 95.548 292.068 94.764Z" fill="#151515"/>
<rect x="324.5" y="75.5" width="39" height="39" rx="3.5" stroke="#7126B5"/>
<path d="M345 89C345 88.4477 344.552 88 344 88C343.448 88 343 88.4477 343 89V94H338C337.448 94 337 94.4477 337 95C337 95.5523 337.448 96 338 96H343V101C343 101.552 343.448 102 344 102C344.552 102 345 101.552 345 101V96H350C350.552 96 351 95.5523 351 95C351 94.4477 350.552 94 350 94H345V89Z" fill="#7126B5"/>
<g opacity="0.5">
<line x1="16" y1="123.5" x2="364" y2="123.5" stroke="#D0D0D0"/>
</g>
<rect x="16" y="132" width="348" height="42" rx="4" fill="white"/>
<path d="M54.818 141.96C55.3873 142.081 55.8447 142.366 56.19 142.814C56.5353 143.253 56.708 143.757 56.708 144.326C56.708 145.147 56.4187 145.801 55.84 146.286C55.2707 146.762 54.4727 147 53.446 147H48.868V137.172H53.292C54.2907 137.172 55.07 137.401 55.63 137.858C56.1993 138.315 56.484 138.936 56.484 139.72C56.484 140.299 56.33 140.779 56.022 141.162C55.7233 141.545 55.322 141.811 54.818 141.96ZM51.262 141.148H52.83C53.222 141.148 53.5207 141.064 53.726 140.896C53.9407 140.719 54.048 140.462 54.048 140.126C54.048 139.79 53.9407 139.533 53.726 139.356C53.5207 139.179 53.222 139.09 52.83 139.09H51.262V141.148ZM53.026 145.068C53.4273 145.068 53.7353 144.979 53.95 144.802C54.174 144.615 54.286 144.349 54.286 144.004C54.286 143.659 54.1693 143.388 53.936 143.192C53.712 142.996 53.3993 142.898 52.998 142.898H51.262V145.068H53.026ZM57.6205 143.08C57.6205 142.277 57.7698 141.573 58.0685 140.966C58.3765 140.359 58.7918 139.893 59.3145 139.566C59.8372 139.239 60.4205 139.076 61.0645 139.076C61.6152 139.076 62.0958 139.188 62.5065 139.412C62.9265 139.636 63.2485 139.93 63.4725 140.294V139.188H65.8665V147H63.4725V145.894C63.2392 146.258 62.9125 146.552 62.4925 146.776C62.0818 147 61.6012 147.112 61.0505 147.112C60.4158 147.112 59.8372 146.949 59.3145 146.622C58.7918 146.286 58.3765 145.815 58.0685 145.208C57.7698 144.592 57.6205 143.883 57.6205 143.08ZM63.4725 143.094C63.4725 142.497 63.3045 142.025 62.9685 141.68C62.6418 141.335 62.2405 141.162 61.7645 141.162C61.2885 141.162 60.8825 141.335 60.5465 141.68C60.2198 142.016 60.0565 142.483 60.0565 143.08C60.0565 143.677 60.2198 144.153 60.5465 144.508C60.8825 144.853 61.2885 145.026 61.7645 145.026C62.2405 145.026 62.6418 144.853 62.9685 144.508C63.3045 144.163 63.4725 143.691 63.4725 143.094ZM75.5785 139.188L70.6785 150.71H68.1025L69.8945 146.734L66.7165 139.188H69.3905L71.1965 144.074L72.9885 139.188H75.5785ZM77.6482 138.376C77.2282 138.376 76.8828 138.255 76.6122 138.012C76.3508 137.76 76.2202 137.452 76.2202 137.088C76.2202 136.715 76.3508 136.407 76.6122 136.164C76.8828 135.912 77.2282 135.786 77.6482 135.786C78.0588 135.786 78.3948 135.912 78.6562 136.164C78.9268 136.407 79.0622 136.715 79.0622 137.088C79.0622 137.452 78.9268 137.76 78.6562 138.012C78.3948 138.255 78.0588 138.376 77.6482 138.376ZM78.8382 139.188V147H76.4442V139.188H78.8382Z" fill="#151515"/>
<path d="M51.732 171.232C50.964 170.48 50.364 169.524 49.932 168.364C49.508 167.204 49.296 165.952 49.296 164.608C49.296 163.232 49.52 161.948 49.968 160.756C50.424 159.556 51.072 158.568 51.912 157.792H53.052V157.9C52.156 158.74 51.48 159.752 51.024 160.936C50.576 162.112 50.352 163.336 50.352 164.608C50.352 165.848 50.564 167.032 50.988 168.16C51.42 169.288 52.048 170.276 52.872 171.124V171.232H51.732ZM56.9772 160.636C57.8892 160.636 58.6772 160.808 59.3412 161.152C60.0132 161.488 60.5252 161.972 60.8772 162.604C61.2372 163.236 61.4172 163.98 61.4172 164.836C61.4172 165.692 61.2372 166.436 60.8772 167.068C60.5252 167.692 60.0132 168.172 59.3412 168.508C58.6772 168.836 57.8892 169 56.9772 169H54.3732V160.636H56.9772ZM56.9772 168.1C58.0572 168.1 58.8812 167.816 59.4492 167.248C60.0172 166.672 60.3012 165.868 60.3012 164.836C60.3012 163.796 60.0132 162.984 59.4372 162.4C58.8692 161.816 58.0492 161.524 56.9772 161.524H55.4652V168.1H56.9772ZM63.4216 161.356C63.2136 161.356 63.0376 161.284 62.8936 161.14C62.7496 160.996 62.6776 160.82 62.6776 160.612C62.6776 160.404 62.7496 160.228 62.8936 160.084C63.0376 159.94 63.2136 159.868 63.4216 159.868C63.6216 159.868 63.7896 159.94 63.9256 160.084C64.0696 160.228 64.1416 160.404 64.1416 160.612C64.1416 160.82 64.0696 160.996 63.9256 161.14C63.7896 161.284 63.6216 161.356 63.4216 161.356ZM63.9496 162.424V169H62.8576V162.424H63.9496ZM66.9027 163.648C67.1267 163.256 67.4547 162.936 67.8867 162.688C68.3187 162.44 68.8107 162.316 69.3627 162.316C69.9547 162.316 70.4867 162.456 70.9587 162.736C71.4307 163.016 71.8027 163.412 72.0747 163.924C72.3467 164.428 72.4827 165.016 72.4827 165.688C72.4827 166.352 72.3467 166.944 72.0747 167.464C71.8027 167.984 71.4267 168.388 70.9467 168.676C70.4747 168.964 69.9467 169.108 69.3627 169.108C68.7947 169.108 68.2947 168.984 67.8627 168.736C67.4387 168.488 67.1187 168.172 66.9027 167.788V169H65.8107V160.12H66.9027V163.648ZM71.3667 165.688C71.3667 165.192 71.2667 164.76 71.0667 164.392C70.8667 164.024 70.5947 163.744 70.2507 163.552C69.9147 163.36 69.5427 163.264 69.1347 163.264C68.7347 163.264 68.3627 163.364 68.0187 163.564C67.6827 163.756 67.4107 164.04 67.2027 164.416C67.0027 164.784 66.9027 165.212 66.9027 165.7C66.9027 166.196 67.0027 166.632 67.2027 167.008C67.4107 167.376 67.6827 167.66 68.0187 167.86C68.3627 168.052 68.7347 168.148 69.1347 168.148C69.5427 168.148 69.9147 168.052 70.2507 167.86C70.5947 167.66 70.8667 167.376 71.0667 167.008C71.2667 166.632 71.3667 166.192 71.3667 165.688ZM73.5121 165.688C73.5121 165.016 73.6481 164.428 73.9201 163.924C74.1921 163.412 74.5641 163.016 75.0361 162.736C75.5161 162.456 76.0481 162.316 76.6321 162.316C77.2081 162.316 77.7081 162.44 78.1321 162.688C78.5561 162.936 78.8721 163.248 79.0801 163.624V162.424H80.1841V169H79.0801V167.776C78.8641 168.16 78.5401 168.48 78.1081 168.736C77.6841 168.984 77.1881 169.108 76.6201 169.108C76.0361 169.108 75.5081 168.964 75.0361 168.676C74.5641 168.388 74.1921 167.984 73.9201 167.464C73.6481 166.944 73.5121 166.352 73.5121 165.688ZM79.0801 165.7C79.0801 165.204 78.9801 164.772 78.7801 164.404C78.5801 164.036 78.3081 163.756 77.9641 163.564C77.6281 163.364 77.2561 163.264 76.8481 163.264C76.4401 163.264 76.0681 163.36 75.7321 163.552C75.3961 163.744 75.1281 164.024 74.9281 164.392C74.7281 164.76 74.6281 165.192 74.6281 165.688C74.6281 166.192 74.7281 166.632 74.9281 167.008C75.1281 167.376 75.3961 167.66 75.7321 167.86C76.0681 168.052 76.4401 168.148 76.8481 168.148C77.2561 168.148 77.6281 168.052 77.9641 167.86C78.3081 167.66 78.5801 167.376 78.7801 167.008C78.9801 166.632 79.0801 166.196 79.0801 165.7ZM90.7895 162.424L88.7375 169H87.6095L86.0255 163.78L84.4415 169H83.3135L81.2495 162.424H82.3655L83.8775 167.944L85.5095 162.424H86.6255L88.2215 167.956L89.7095 162.424H90.7895ZM91.4652 165.688C91.4652 165.016 91.6012 164.428 91.8732 163.924C92.1452 163.412 92.5172 163.016 92.9892 162.736C93.4692 162.456 94.0012 162.316 94.5852 162.316C95.1612 162.316 95.6612 162.44 96.0852 162.688C96.5092 162.936 96.8252 163.248 97.0332 163.624V162.424H98.1372V169H97.0332V167.776C96.8172 168.16 96.4932 168.48 96.0612 168.736C95.6372 168.984 95.1412 169.108 94.5732 169.108C93.9892 169.108 93.4612 168.964 92.9892 168.676C92.5172 168.388 92.1452 167.984 91.8732 167.464C91.6012 166.944 91.4652 166.352 91.4652 165.688ZM97.0332 165.7C97.0332 165.204 96.9332 164.772 96.7332 164.404C96.5332 164.036 96.2612 163.756 95.9172 163.564C95.5812 163.364 95.2092 163.264 94.8012 163.264C94.3932 163.264 94.0212 163.36 93.6852 163.552C93.3492 163.744 93.0812 164.024 92.8812 164.392C92.6812 164.76 92.5812 165.192 92.5812 165.688C92.5812 166.192 92.6812 166.632 92.8812 167.008C93.0812 167.376 93.3492 167.66 93.6852 167.86C94.0212 168.052 94.3932 168.148 94.8012 168.148C95.2092 168.148 95.5812 168.052 95.9172 167.86C96.2612 167.66 96.5332 167.376 96.7332 167.008C96.9332 166.632 97.0332 166.196 97.0332 165.7ZM103.247 162.304C103.743 162.304 104.191 162.412 104.591 162.628C104.991 162.836 105.303 163.152 105.527 163.576C105.759 164 105.875 164.516 105.875 165.124V169H104.795V165.28C104.795 164.624 104.631 164.124 104.303 163.78C103.975 163.428 103.527 163.252 102.959 163.252C102.383 163.252 101.923 163.432 101.579 163.792C101.243 164.152 101.075 164.676 101.075 165.364V169H99.9826V160.12H101.075V163.36C101.291 163.024 101.587 162.764 101.963 162.58C102.347 162.396 102.775 162.304 103.247 162.304ZM110.546 168.124C111.562 167.308 112.358 166.64 112.934 166.12C113.51 165.592 113.994 165.044 114.386 164.476C114.786 163.9 114.986 163.336 114.986 162.784C114.986 162.264 114.858 161.856 114.602 161.56C114.354 161.256 113.95 161.104 113.39 161.104C112.846 161.104 112.422 161.276 112.118 161.62C111.822 161.956 111.662 162.408 111.638 162.976H110.582C110.614 162.08 110.886 161.388 111.398 160.9C111.91 160.412 112.57 160.168 113.378 160.168C114.202 160.168 114.854 160.396 115.334 160.852C115.822 161.308 116.066 161.936 116.066 162.736C116.066 163.4 115.866 164.048 115.466 164.68C115.074 165.304 114.626 165.856 114.122 166.336C113.618 166.808 112.974 167.36 112.19 167.992H116.318V168.904H110.546V168.124ZM122.291 163.324V167.2C122.291 167.52 122.359 167.748 122.495 167.884C122.631 168.012 122.867 168.076 123.203 168.076H124.007V169H123.023C122.415 169 121.959 168.86 121.655 168.58C121.351 168.3 121.199 167.84 121.199 167.2V163.324H120.347V162.424H121.199V160.768H122.291V162.424H124.007V163.324H122.291ZM124.922 165.688C124.922 165.016 125.058 164.428 125.33 163.924C125.602 163.412 125.974 163.016 126.446 162.736C126.926 162.456 127.458 162.316 128.042 162.316C128.618 162.316 129.118 162.44 129.542 162.688C129.966 162.936 130.282 163.248 130.49 163.624V162.424H131.594V169H130.49V167.776C130.274 168.16 129.95 168.48 129.518 168.736C129.094 168.984 128.598 169.108 128.03 169.108C127.446 169.108 126.918 168.964 126.446 168.676C125.974 168.388 125.602 167.984 125.33 167.464C125.058 166.944 124.922 166.352 124.922 165.688ZM130.49 165.7C130.49 165.204 130.39 164.772 130.19 164.404C129.99 164.036 129.718 163.756 129.374 163.564C129.038 163.364 128.666 163.264 128.258 163.264C127.85 163.264 127.478 163.36 127.142 163.552C126.806 163.744 126.538 164.024 126.338 164.392C126.138 164.76 126.038 165.192 126.038 165.688C126.038 166.192 126.138 166.632 126.338 167.008C126.538 167.376 126.806 167.66 127.142 167.86C127.478 168.052 127.85 168.148 128.258 168.148C128.666 168.148 129.038 168.052 129.374 167.86C129.718 167.66 129.99 167.376 130.19 167.008C130.39 166.632 130.49 166.196 130.49 165.7ZM136.704 162.304C137.2 162.304 137.648 162.412 138.048 162.628C138.448 162.836 138.76 163.152 138.984 163.576C139.216 164 139.332 164.516 139.332 165.124V169H138.252V165.28C138.252 164.624 138.088 164.124 137.76 163.78C137.432 163.428 136.984 163.252 136.416 163.252C135.84 163.252 135.38 163.432 135.036 163.792C134.7 164.152 134.532 164.676 134.532 165.364V169H133.44V160.12H134.532V163.36C134.748 163.024 135.044 162.764 135.42 162.58C135.804 162.396 136.232 162.304 136.704 162.304ZM146.947 162.424V169H145.855V168.028C145.647 168.364 145.355 168.628 144.979 168.82C144.611 169.004 144.203 169.096 143.755 169.096C143.243 169.096 142.783 168.992 142.375 168.784C141.967 168.568 141.643 168.248 141.403 167.824C141.171 167.4 141.055 166.884 141.055 166.276V162.424H142.135V166.132C142.135 166.78 142.299 167.28 142.627 167.632C142.955 167.976 143.403 168.148 143.971 168.148C144.555 168.148 145.015 167.968 145.351 167.608C145.687 167.248 145.855 166.724 145.855 166.036V162.424H146.947ZM151.995 162.304C152.795 162.304 153.443 162.548 153.939 163.036C154.435 163.516 154.683 164.212 154.683 165.124V169H153.603V165.28C153.603 164.624 153.439 164.124 153.111 163.78C152.783 163.428 152.335 163.252 151.767 163.252C151.191 163.252 150.731 163.432 150.387 163.792C150.051 164.152 149.883 164.676 149.883 165.364V169H148.791V162.424H149.883V163.36C150.099 163.024 150.391 162.764 150.759 162.58C151.135 162.396 151.547 162.304 151.995 162.304ZM156.119 171.232V171.124C156.943 170.276 157.567 169.288 157.991 168.16C158.423 167.032 158.639 165.848 158.639 164.608C158.639 163.336 158.411 162.112 157.955 160.936C157.507 159.752 156.835 158.74 155.939 157.9V157.792H157.079C157.919 158.568 158.563 159.556 159.011 160.756C159.467 161.948 159.695 163.232 159.695 164.608C159.695 165.952 159.479 167.204 159.047 168.364C158.623 169.524 158.027 170.48 157.259 171.232H156.119Z" fill="#8A8A8A"/>
<path d="M32 138C32 140.209 30.2091 142 28 142C25.7909 142 24 140.209 24 138C24 135.791 25.7909 134 28 134C30.2091 134 32 135.791 32 138Z" fill="#3C3C3C"/>
<path d="M21.8909 141.99C22.4486 141.378 23.3974 141.333 24.0099 141.891C25.1384 142.918 26.5234 143.5 28 143.5C29.4766 143.5 30.8616 142.918 31.9901 141.891C32.6027 141.333 33.5514 141.378 34.1091 141.99C34.6669 142.603 34.6224 143.551 34.0099 144.109C33.2459 144.805 32.3788 145.375 31.4351 145.784L32.6022 151.911C32.8087 152.996 31.9775 154 30.8738 154C30.0664 154 29.3626 153.451 29.1668 152.667L28.6213 150.485C28.55 150.2 28.2939 150 28 150C27.7062 150 27.45 150.2 27.3787 150.485L26.8332 152.667C26.6374 153.451 25.9336 154 25.1263 154C24.0225 154 23.1913 152.996 23.3979 151.911L24.5649 145.784C23.6212 145.375 22.7541 144.805 21.9901 144.109C21.3776 143.551 21.3332 142.603 21.8909 141.99Z" fill="#3C3C3C"/>
<rect x="216.5" y="133.5" width="39" height="39" rx="3.5" stroke="#7126B5"/>
<path fill-rule="evenodd" clip-rule="evenodd" d="M243 153C243 153.552 242.552 154 242 154L230 154C229.448 154 229 153.552 229 153C229 152.448 229.448 152 230 152L242 152C242.552 152 243 152.448 243 153Z" fill="#D0D0D0"/>
<rect x="260.5" y="133.5" width="59" height="39" rx="3.5" fill="white"/>
<rect x="260.5" y="133.5" width="59" height="39" rx="3.5" stroke="#D0D0D0"/>
<path d="M288.183 149.25V147.794H291.095V158H289.485V149.25H288.183Z" fill="#151515"/>
<rect x="324.5" y="133.5" width="39" height="39" rx="3.5" stroke="#7126B5"/>
<path d="M345 147C345 146.448 344.552 146 344 146C343.448 146 343 146.448 343 147V152H338C337.448 152 337 152.448 337 153C337 153.552 337.448 154 338 154H343V159C343 159.552 343.448 160 344 160C344.552 160 345 159.552 345 159V154H350C350.552 154 351 153.552 351 153C351 152.448 350.552 152 350 152H345V147Z" fill="#7126B5"/>
<g opacity="0.5">
<line x1="16" y1="181.5" x2="364" y2="181.5" stroke="#D0D0D0"/>
</g>
</g>
<defs>
<clipPath id="clip0_135_4212">
<rect width="380" height="198" fill="white"/>
</clipPath>
</defs>
</svg>
